<?xml version="1.0" encoding="iso-8859-1"?>
<!-- Generator: Adobe Illustrator 16.0.4, SVG Export Plug-In . SVG Version: 6.00 Build 0)  -->
<!DOCTYPE svg PUBLIC "-//W3C//DTD SVG 1.1//EN" "http://www.w3.org/Graphics/SVG/1.1/DTD/svg11.dtd">
<svg version="1.1" id="Layer_1" xmlns="http://www.w3.org/2000/svg" xmlns:xlink="http://www.w3.org/1999/xlink" x="0px" y="0px"
	 width="50px" height="50px" viewBox="0 0 50 50" style="enable-background:new 0 0 50 50;" xml:space="preserve">
<path style="fill:#000100;" d="M26.139,7.084c0,0.509-0.414,0.926-0.923,0.926l0,0c-0.512,0-0.926-0.417-0.926-0.926V1.727
	c0-0.513,0.414-0.927,0.926-0.927l0,0c0.509,0,0.923,0.414,0.923,0.927V7.084z M16.216,3.87c-0.253-0.438-0.821-0.593-1.263-0.337
	l0,0c-0.442,0.256-0.593,0.821-0.337,1.263l2.681,4.639c0.256,0.446,0.821,0.596,1.263,0.34l0,0c0.439-0.252,0.593-0.82,0.337-1.259
	L16.216,3.87z M8.697,10.695c-0.443-0.256-1.007-0.105-1.26,0.336l0,0c-0.256,0.442-0.105,1.008,0.337,1.264l4.638,2.677
	c0.446,0.259,1.011,0.105,1.264-0.337l0,0c0.256-0.441,0.104-1.007-0.337-1.263L8.697,10.695z M5.595,20.361
	c-0.509,0-0.923,0.411-0.923,0.922l0,0c0,0.512,0.414,0.927,0.923,0.927h5.361c0.509,0,0.923-0.415,0.923-0.927l0,0
	c0-0.512-0.414-0.922-0.923-0.922H5.595z M31.103,8.516c-0.252,0.439-0.102,1.007,0.341,1.259l0,0
	c0.442,0.256,1.007,0.106,1.259-0.34l2.681-4.639c0.256-0.441,0.105-1.006-0.337-1.263l0,0c-0.442-0.256-1.007-0.102-1.263,0.337
	L31.103,8.516z M36.661,13.372c-0.441,0.256-0.592,0.822-0.336,1.263l0,0c0.255,0.442,0.82,0.597,1.263,0.337l4.642-2.677
	c0.438-0.256,0.589-0.821,0.337-1.264l0,0c-0.256-0.441-0.821-0.593-1.263-0.336L36.661,13.372z M39.047,20.361
	c-0.512,0-0.926,0.411-0.926,0.922l0,0c0,0.512,0.414,0.927,0.926,0.927h5.358c0.512,0,0.923-0.415,0.923-0.927l0,0
	c0-0.512-0.411-0.922-0.923-0.922H39.047z M21.142,34.576c1.077,0,7.116,0,8.102,0s1.182-0.776,1.305-1.144
	c0.576-1.674,1.516-3.018,2.274-4.098c1.873-2.67,2.824-5.078,2.824-7.148c0-5.758-4.685-10.441-10.442-10.441
	s-10.442,4.684-10.442,10.441c0,2.07,0.951,4.478,2.828,7.148c0.758,1.081,1.695,2.424,2.27,4.098
	c0.126,0.368,0.323,1.144,1.309,1.144c0.983,0,7.021,0,8.099,0H21.142z M20.791,35.691c-0.333,0-0.635,0.144-0.852,0.372
	c-0.221,0.231-0.354,0.547-0.354,0.902c0,0.288,0.091,0.555,0.246,0.771c0.154,0.211,0.625,0.481,0.625,1.246
	s-0.471,1.035-0.625,1.25c-0.154,0.214-0.246,0.48-0.246,0.772c0,0.287,0.091,0.554,0.246,0.768
	c0.154,0.214,0.625,0.579,0.625,1.249c0,0.674-0.471,1.035-0.625,1.25c-0.154,0.214-0.246,0.48-0.246,0.771
	c0,0.295,0.094,0.565,0.256,0.783c0.175,0.238,0.708,0.804,0.821,0.989c0.095,0.158,0.414,0.435,1.485,0.734
	c0.326,0.102,0.719,0.207,1.182,0.284c0.393,0.066,0.593,0.242,0.72,0.565c0.062,0.162,0.158,0.309,0.273,0.428
	c0.221,0.231,0.526,0.375,0.863,0.375c0.333,0,0.639-0.144,0.863-0.375c0.113-0.12,0.208-0.267,0.27-0.428
	c0.126-0.323,0.327-0.499,0.72-0.565c0.466-0.077,0.856-0.182,1.182-0.284c1.07-0.299,1.39-0.576,1.488-0.734
	c0.112-0.186,0.642-0.751,0.821-0.989c0.162-0.218,0.252-0.488,0.252-0.783c0-0.291-0.091-0.558-0.245-0.771
	c-0.155-0.214-0.625-0.576-0.625-1.25c0-0.67,0.471-1.035,0.625-1.249c0.154-0.214,0.245-0.481,0.245-0.768
	c0-0.292-0.091-0.558-0.245-0.772c-0.155-0.214-0.625-0.484-0.625-1.25s0.471-1.035,0.625-1.246
	c0.154-0.217,0.245-0.484,0.245-0.771c0-0.354-0.133-0.67-0.351-0.902c-0.217-0.228-0.52-0.372-0.855-0.372H20.791z M25.44,39.021
	c0,0.443-0.354,0.8-0.796,0.8h-2.72c-0.442,0-0.799-0.357-0.799-0.8l0,0c0-0.438,0.357-0.796,0.799-0.796h2.72
	C25.086,38.225,25.44,38.583,25.44,39.021L25.44,39.021z M25.44,43.235c0,0.439-0.354,0.796-0.796,0.796h-2.72
	c-0.442,0-0.799-0.357-0.799-0.796l0,0c0-0.441,0.357-0.8,0.799-0.8h2.72C25.086,42.435,25.44,42.793,25.44,43.235L25.44,43.235z"/>
</svg>
