<?xml version="1.0" encoding="iso-8859-1"?>
<!-- Generator: Adobe Illustrator 16.0.4, SVG Export Plug-In . SVG Version: 6.00 Build 0)  -->
<!DOCTYPE svg PUBLIC "-//W3C//DTD SVG 1.1//EN" "http://www.w3.org/Graphics/SVG/1.1/DTD/svg11.dtd">
<svg version="1.1" id="Layer_1" xmlns="http://www.w3.org/2000/svg" xmlns:xlink="http://www.w3.org/1999/xlink" x="0px" y="0px"
	 width="50px" height="50px" viewBox="0 0 50 50" style="enable-background:new 0 0 50 50;" xml:space="preserve">
<g>
	<path d="M41.007,13.75c-0.127,0-0.34,0.046-0.378-0.056c2.701-0.138,3.71-0.859,3.463-1.045c-0.345-0.258-0.955-0.309-1.063-0.82
		c-0.228-1.072,0.216-2.096-0.183-3.185c-0.557-1.52-1.683-2.042-3.171-2.266c-0.842-0.127-1.759,0.542-2.658,0.479
		c-0.195-0.013-0.347-0.087-0.464-0.188c-0.197,0.109-0.398,0.213-0.612,0.285c-0.936,0.314-1.917,0.428-2.855,0.752
		c-2.06,0.711-2.546,1.845-2.226,3.733c0.051,0.309-0.167,0.594-0.125,0.873c0.04,0.265-0.005,0.504-0.17,0.687
		c0.779,0.053,0.94,1.243,0.143,1.442c-0.218,0.055-0.436,0.109-0.654,0.164c-0.064,0.016-0.123,0.022-0.183,0.023
		c-0.112,0.081-0.677,0.157-0.953,0.219c-0.939,0.217-2.15,0.514-3.026,0.586c-1.432,0.117-2.697-0.114-3.878-0.378
		c-0.672-0.15-1.52-0.32-2.083-0.511l-0.056,0.003c-0.595,0.135-1.217-0.678-0.685-1.256c0.103-0.238,0.206-0.475,0.309-0.715
		c-0.021-0.097-0.026-0.201-0.008-0.31c0.056-0.318,0.158-0.694,0.247-1.083l-0.108-0.008l0.116-0.035
		c0.027-0.122,0.052-0.246,0.074-0.369c-0.086-0.002-0.17-0.007-0.247-0.031c0.083-0.011,0.168-0.016,0.255-0.019
		c0.083-0.499,0.109-0.988-0.054-1.379c-0.24-0.576-0.651-0.302-0.993-0.656c-0.886-0.915-1.711-1.056-2.871-0.972
		c-0.28,0.021-0.668-0.027-0.909-0.183c-0.38-0.245-3.155-1.037-3.635-0.818C10.24,7.23,9.3,6.669,8.216,7.395
		c-0.057,0.166-0.152,0.32-0.289,0.425c-0.671,0.519-0.66,0.798-0.521,1.542C7.419,9.433,7.42,9.499,7.419,9.564
		c0.49,0.039,0.791,0.696,0.527,1.101c-0.238,0.365-0.527,0.587-0.818,0.815c0.064,0.438-0.291,0.979-0.867,0.916
		c-0.126,0.057,0.56,1.138,3.109,1.315c-2.775,0.045-5.381,0.225-8.023,0.454c0.048,0.851,0.221,1.806,0.284,2.611
		c0.033,0.434,0.352,0.34,0.644,0.453c1.046,0.412,1.244,1.923,1.514,3.049c0.303,1.253,0.674,2.709,1.249,3.974
		c0.531,1.161,1.415,2.043,2.611,2.592c1.242,0.568,2.934,0.863,4.561,1.021c2.352,0.229,4.743-0.268,6.149-1.097
		c2.041-1.201,3.236-3.219,4.219-5.469c0.235-0.537,0.475-1.135,0.738-1.685c0.234-0.488,0.522-1.068,1.229-1.154
		c-0.055,0.084,0.045,0.003,0.019,0.114c0.252-0.058,0.682,0.055,0.871-0.019c0.072-0.029,0.045-0.099,0.17-0.076
		c0.479,0.086,0.872,0.682,1.135,1.248c0.252,0.541,0.508,1.122,0.739,1.665c0.472,1.121,1.027,2.178,1.702,3.103
		c0.644,0.886,1.472,1.729,2.479,2.309c0.505,0.292,1.094,0.481,1.739,0.662c0.623,0.175,1.303,0.344,2.006,0.397
		c1.755,0.135,3.525-0.065,4.957-0.397c2.204-0.508,3.765-1.39,4.598-3.215c0.569-1.25,0.95-2.702,1.249-3.955
		c0.276-1.157,0.467-2.623,1.513-3.046c0.314-0.127,0.609-0.076,0.645-0.492c0.066-0.781,0.238-1.792,0.284-2.593
		C46.134,13.957,43.677,13.75,41.007,13.75z M20.97,19.654c-0.266,1.999-0.957,3.574-1.968,4.767
		c-0.655,0.773-1.542,1.437-2.705,1.781c-1.153,0.338-2.609,0.48-4.05,0.358c-1.877-0.159-3.946-0.661-5.09-1.665
		c-0.4-0.35-0.648-0.823-0.871-1.362c-0.436-1.055-0.718-2.207-0.888-3.594c-0.195-1.574-0.227-3.738,0.869-4.505
		c0.477-0.333,1.153-0.495,1.78-0.605c0.683-0.12,1.413-0.131,2.251-0.171c1.014-0.049,2.225,0.042,3.179,0.152
		c1.942,0.225,3.832,0.599,5.394,1.229c0.784,0.317,1.804,0.792,2.062,1.552C21.139,18.202,21.056,19.008,20.97,19.654z
		 M44.583,20.145c-0.189,1.34-0.481,2.521-0.926,3.539c-0.229,0.52-0.507,0.977-0.928,1.305c-1.191,0.931-3.254,1.428-5.127,1.571
		c-1.439,0.109-2.924-0.06-3.992-0.398c-1.139-0.359-1.964-1.013-2.648-1.814c-0.96-1.123-1.716-2.804-1.95-4.75
		c-0.081-0.682-0.143-1.676,0.151-2.214c0.333-0.61,1.223-1.039,1.874-1.305c1.506-0.621,3.268-0.992,5.128-1.212
		c0.949-0.112,1.899-0.156,2.988-0.207c0.815-0.04,1.777,0.039,2.461,0.133c1.265,0.173,2.31,0.464,2.743,1.437
		C44.825,17.282,44.757,18.937,44.583,20.145z"/>
	<path d="M13.376,28.413c-0.408,0-0.816-0.02-1.213-0.059c-2.015-0.195-3.603-0.552-4.717-1.062c-1.308-0.6-2.269-1.553-2.854-2.835
		c-0.587-1.292-0.968-2.775-1.279-4.063c-0.036-0.146-0.069-0.297-0.104-0.452C3,19.008,2.766,17.952,2.097,17.689
		c-0.048-0.019-0.1-0.026-0.148-0.036c-0.205-0.04-0.752-0.146-0.806-0.838c-0.028-0.355-0.077-0.741-0.128-1.131
		c-0.063-0.494-0.129-1.005-0.157-1.49L0.83,13.717l0.476-0.041c1.512-0.131,3.227-0.268,5.094-0.358
		c-0.404-0.292-0.6-0.591-0.635-0.791l-0.067-0.379l0.485-0.254l0.132,0.014c0.064,0.003,0.156,0.002,0.239-0.094
		c0.064-0.074,0.1-0.18,0.087-0.263L6.599,11.27l0.226-0.176c0.29-0.227,0.521-0.409,0.708-0.696
		c0.03-0.045,0.023-0.137-0.016-0.216c-0.036-0.071-0.091-0.123-0.138-0.126l-0.462-0.037l0.01-0.465L6.923,9.453
		C6.759,8.575,6.775,8.089,7.627,7.432c0.051-0.039,0.095-0.108,0.125-0.195l0.054-0.158l0.138-0.092
		c0.708-0.475,1.372-0.491,1.958-0.505c0.45-0.011,0.839-0.021,1.259-0.213c0.124-0.056,0.272-0.082,0.467-0.082
		c0.917,0,3.196,0.649,3.64,0.935c0.113,0.074,0.389,0.121,0.606,0.105c1.419-0.102,2.363,0.193,3.26,1.12
		c0.041,0.042,0.079,0.054,0.212,0.086c0.242,0.059,0.646,0.159,0.882,0.723c0.153,0.367,0.172,0.777,0.147,1.139l0.029,0
		l-0.077,0.431l0.017,0.001l-0.127,0.565c-0.011,0.049-0.022,0.098-0.034,0.146l-0.029,0.123c-0.012,0.05-0.024,0.102-0.036,0.151
		c-0.056,0.229-0.108,0.446-0.143,0.641l0.004,0.12l0.034,0.154l-0.405,0.938l-0.057,0.062c-0.051,0.055-0.102,0.133-0.05,0.255
		c0.052,0.117,0.165,0.19,0.24,0.19l0.206-0.04l0.141,0.048c0.429,0.145,1.063,0.284,1.624,0.406l0.408,0.09
		c1.128,0.252,2.364,0.481,3.731,0.368c0.75-0.062,1.807-0.308,2.655-0.505l0.301-0.07c0.093-0.021,0.214-0.044,0.341-0.067
		c0.144-0.026,0.377-0.069,0.469-0.098l0.09-0.064l0.153-0.002l0.071-0.008l0.657-0.164c0.042-0.011,0.168-0.042,0.151-0.233
		c-0.002-0.023-0.025-0.228-0.209-0.241l-1.008-0.069l0.675-0.75c0.02-0.022,0.079-0.088,0.05-0.288
		c-0.037-0.241,0.026-0.452,0.077-0.622c0.027-0.09,0.058-0.193,0.05-0.24c-0.381-2.251,0.382-3.531,2.551-4.28
		c0.505-0.174,1.018-0.29,1.513-0.402c0.469-0.106,0.912-0.206,1.345-0.351c0.17-0.058,0.336-0.141,0.532-0.25l0.299-0.166
		l0.259,0.224c0.051,0.043,0.106,0.064,0.177,0.07c0.366,0.024,0.723-0.099,1.126-0.228c0.501-0.162,1.038-0.329,1.573-0.246
		c1.287,0.194,2.856,0.663,3.558,2.583c0.258,0.704,0.213,1.382,0.173,1.98c-0.029,0.444-0.056,0.863,0.03,1.271
		c0.018,0.085,0.118,0.143,0.391,0.264c0.155,0.069,0.331,0.146,0.486,0.265c0.198,0.149,0.278,0.399,0.206,0.637
		c-0.049,0.163-0.177,0.316-0.374,0.456c1.467,0.078,2.904,0.197,4.388,0.32l0.564,0.047l-0.028,0.479
		c-0.027,0.47-0.095,1.001-0.16,1.515c-0.049,0.384-0.097,0.759-0.125,1.092c-0.056,0.657-0.546,0.79-0.783,0.854
		c-0.053,0.014-0.109,0.029-0.167,0.052c-0.676,0.273-0.9,1.279-1.116,2.252c-0.034,0.154-0.069,0.306-0.104,0.453
		c-0.306,1.283-0.697,2.767-1.279,4.044c-0.83,1.818-2.351,2.896-4.935,3.491c-0.89,0.206-2.296,0.452-3.935,0.452h0
		c-0.397,0-0.79-0.015-1.171-0.044c-0.754-0.056-1.485-0.241-2.101-0.414c-0.731-0.206-1.327-0.406-1.854-0.71
		c-0.973-0.561-1.858-1.384-2.631-2.445c-0.651-0.893-1.227-1.94-1.757-3.201c-0.229-0.538-0.482-1.113-0.731-1.647
		c-0.252-0.542-0.498-0.824-0.668-0.928l-0.002,0c-0.175,0.069-0.388,0.069-0.652,0.05c-0.132-0.01-0.294-0.007-0.296-0.007
		l-0.512,0.115c-0.151,0.154-0.269,0.379-0.403,0.658c-0.175,0.368-0.34,0.757-0.5,1.134c-0.078,0.182-0.154,0.361-0.229,0.535
		c-0.901,2.059-2.13,4.346-4.421,5.695C17.313,27.956,15.357,28.413,13.376,28.413z M2.119,16.684l0.018,0.003
		c0.104,0.021,0.212,0.043,0.318,0.085c1.157,0.454,1.465,1.84,1.713,2.954c0.034,0.15,0.066,0.296,0.1,0.436
		c0.3,1.245,0.667,2.673,1.218,3.886c0.485,1.06,1.281,1.851,2.368,2.349c1.016,0.464,2.498,0.794,4.404,0.978
		c2.1,0.204,4.478-0.221,5.852-1.031c2.05-1.208,3.182-3.327,4.019-5.242c0.075-0.17,0.149-0.346,0.226-0.525
		c0.166-0.391,0.337-0.793,0.52-1.175c0.235-0.491,0.628-1.31,1.614-1.43l1.046-0.126l-0.098,0.151
		c0.046-0.01,0.09-0.013,0.128-0.013l0.133,0.013c0.565,0.103,1.068,0.615,1.492,1.525c0.254,0.544,0.512,1.131,0.745,1.681
		c0.503,1.191,1.041,2.173,1.647,3.005c0.691,0.95,1.474,1.681,2.327,2.172c0.439,0.254,0.967,0.43,1.627,0.615
		c0.597,0.167,1.243,0.33,1.91,0.379c0.356,0.028,0.725,0.042,1.097,0.042c1.546,0,2.873-0.233,3.713-0.427
		c2.288-0.528,3.562-1.407,4.261-2.941c0.548-1.201,0.922-2.627,1.218-3.865c0.034-0.142,0.067-0.289,0.1-0.438
		c0.246-1.106,0.552-2.483,1.708-2.951c0.096-0.039,0.189-0.065,0.279-0.089l0.06-0.015c0.033-0.358,0.08-0.729,0.128-1.105
		c0.042-0.325,0.084-0.656,0.115-0.97c-2.322-0.192-4.542-0.367-6.959-0.374c0.174,0.019,0.349,0.039,0.518,0.062
		c1.304,0.18,2.586,0.512,3.125,1.725c0.568,1.281,0.409,3.173,0.264,4.187c-0.206,1.455-0.521,2.654-0.962,3.666
		c-0.189,0.431-0.506,1.052-1.076,1.497c-1.616,1.263-4.31,1.591-5.393,1.673c-1.443,0.109-3.01-0.05-4.177-0.42
		c-1.119-0.352-2.032-0.977-2.874-1.965c-1.081-1.264-1.834-3.09-2.064-5.009c-0.141-1.177-0.072-1.997,0.208-2.51
		c0.413-0.757,1.407-1.232,2.12-1.524c1.425-0.586,3.145-0.995,5.256-1.245c0.945-0.112,1.875-0.156,2.951-0.207l0.073-0.003
		c0.412-0.019,0.856-0.012,1.333,0.017c-0.186-0.088-0.265-0.239-0.294-0.319l-0.234-0.628l0.67-0.034
		c1.321-0.067,2.151-0.271,2.618-0.446c-0.283-0.152-0.582-0.387-0.675-0.826c-0.115-0.542-0.081-1.049-0.048-1.541
		c0.037-0.549,0.072-1.067-0.115-1.577c-0.426-1.165-1.207-1.712-2.782-1.949c-0.335-0.051-0.71,0.077-1.125,0.21
		c-0.472,0.152-0.966,0.307-1.496,0.273c-0.157-0.011-0.308-0.049-0.448-0.112c-0.137,0.068-0.282,0.134-0.438,0.185
		c-0.481,0.162-0.97,0.271-1.442,0.378c-0.491,0.111-0.955,0.215-1.408,0.373c-1.725,0.595-2.205,1.4-1.902,3.187
		c0.045,0.272-0.026,0.511-0.078,0.685c-0.019,0.065-0.049,0.164-0.046,0.196c0.027,0.186,0.022,0.35-0.003,0.492
		c0.28,0.204,0.467,0.528,0.501,0.913c0.053,0.605-0.314,1.13-0.893,1.274l-0.655,0.164c-0.055,0.014-0.113,0.025-0.174,0.031
		c-0.144,0.056-0.343,0.096-0.671,0.156c-0.112,0.021-0.218,0.04-0.298,0.058l-0.297,0.069c-0.927,0.215-1.977,0.46-2.798,0.527
		c-0.267,0.021-0.54,0.033-0.812,0.033c-1.17,0-2.237-0.203-3.215-0.421l-0.403-0.088c-0.543-0.119-1.154-0.252-1.623-0.401
		c-0.518,0.066-1.054-0.259-1.278-0.77c-0.187-0.426-0.123-0.886,0.167-1.247l0.225-0.52c-0.01-0.108-0.005-0.216,0.013-0.323
		c0.03-0.173,0.073-0.36,0.12-0.555l-1.25-0.095l0.964-0.503l-1.585-0.478l2.132-0.284c0.026-0.317,0.003-0.56-0.071-0.736
		c-0.043-0.104-0.043-0.104-0.207-0.145c-0.176-0.043-0.443-0.108-0.686-0.358c-0.823-0.851-1.518-0.892-2.482-0.823
		c-0.051,0.004-0.106,0.007-0.163,0.007c-0.191,0-0.678-0.026-1.048-0.267c-0.268-0.161-2.331-0.778-3.106-0.778
		c-0.064,0-0.089,0.006-0.09,0.006c-0.57,0.264-1.123,0.278-1.611,0.29C9.433,7.477,9.034,7.486,8.611,7.73
		C8.516,7.925,8.386,8.088,8.227,8.211C7.777,8.557,7.769,8.62,7.875,9.195C8.095,9.311,8.279,9.501,8.4,9.747
		c0.194,0.394,0.177,0.849-0.042,1.187c-0.224,0.347-0.487,0.584-0.737,0.785c-0.028,0.267-0.14,0.529-0.321,0.739
		c-0.055,0.062-0.112,0.117-0.174,0.167c0.405,0.24,1.126,0.516,2.279,0.597l-0.026,0.982c-2.792,0.044-5.338,0.227-7.5,0.41
		c0.03,0.311,0.072,0.631,0.112,0.944C2.04,15.946,2.089,16.329,2.119,16.684z M39.604,15.14c-0.145,0-0.289,0.004-0.428,0.01
		l-0.073,0.003c-1.057,0.05-1.971,0.094-2.881,0.202c-2.021,0.241-3.656,0.626-4.998,1.179c-0.886,0.363-1.435,0.728-1.629,1.085
		c-0.099,0.182-0.244,0.672-0.095,1.92c0.208,1.732,0.876,3.367,1.835,4.488c0.717,0.842,1.487,1.371,2.422,1.665
		c1.039,0.33,2.502,0.475,3.806,0.378c2.07-0.157,3.887-0.706,4.862-1.468c0.305-0.238,0.546-0.582,0.781-1.116
		c0.404-0.928,0.695-2.043,0.89-3.41c0.104-0.732,0.296-2.553-0.19-3.648c-0.326-0.731-1.145-0.982-2.36-1.148
		C40.906,15.191,40.197,15.14,39.604,15.14z M13.276,27.095c-0.358,0-0.719-0.016-1.07-0.045c-1.381-0.117-3.915-0.505-5.372-1.786
		c-0.499-0.436-0.776-0.999-1.001-1.543c-0.452-1.091-0.745-2.275-0.922-3.723c-0.317-2.574,0.045-4.246,1.076-4.967
		c0.578-0.404,1.36-0.579,1.976-0.687c0.592-0.104,1.215-0.13,1.875-0.159l0.438-0.019c1.125-0.055,2.452,0.061,3.258,0.155
		c2.255,0.26,4.062,0.672,5.521,1.261c0.984,0.397,2.031,0.928,2.345,1.851c0.229,0.678,0.164,1.5,0.059,2.285
		c-0.268,2.019-0.967,3.708-2.08,5.021c-0.797,0.942-1.787,1.593-2.941,1.935C15.495,26.95,14.403,27.095,13.276,27.095z
		 M10.898,15.137c-0.197,0-0.39,0.004-0.577,0.013l-0.443,0.02c-0.653,0.027-1.218,0.051-1.746,0.144
		c-0.518,0.09-1.164,0.232-1.583,0.524c-0.679,0.476-0.921,1.948-0.664,4.04c0.167,1.359,0.439,2.46,0.855,3.467
		c0.18,0.433,0.394,0.876,0.74,1.18c0.912,0.799,2.664,1.362,4.808,1.545c1.34,0.113,2.746-0.012,3.87-0.34
		c0.965-0.285,1.796-0.833,2.468-1.626c0.988-1.167,1.613-2.686,1.856-4.515c0.089-0.668,0.149-1.353-0.016-1.84
		c-0.21-0.618-1.352-1.08-1.78-1.253c-1.357-0.548-3.129-0.95-5.266-1.197C12.783,15.225,11.83,15.137,10.898,15.137z"/>
	<g>
		<g>
			<defs>
				<rect id="SVGID_1_" x="17.718" y="17.904" width="14.48" height="19.165"/>
			</defs>
			<clipPath id="SVGID_2_">
				<use xlink:href="#SVGID_1_"  style="overflow:visible;"/>
			</clipPath>
			<path style="clip-path:url(#SVGID_2_);" d="M32.173,32.017c0.04,0.147,0.02,0.275,0.02,0.417c-0.02,0.162-0.054,0.31-0.108,0.452
				c-0.039,0.073-0.093,0.147-0.148,0.216c-0.304,0.329-0.667,0.511-1.05,0.727c-0.324,0.196-0.634,0.344-0.958,0.472
				c-0.492,0.417-0.958,0.83-1.395,1.34c-0.633,0.688-1.521,0.978-2.371,1.247c-0.271,0.089-0.78,0.153-0.78,0.153
				c-0.153,0.02-0.3,0.029-0.438,0.029c-0.923,0-1.9-0.437-1.9-0.437s-1.192-0.433-1.63-0.977c-0.432-0.545-1.41-1.36-1.41-1.36
				s-1.09-0.432-1.905-1.084c-0.81-0.654-0.108-2.229,0.054-2.716c0.167-0.491,1.361-2.391,1.577-2.716
				c0.221-0.329,2.283-6.191,2.283-6.191l-0.305-0.324l0.369-0.246c0,0,0.898-3.152,2.784-3.113c0,0,2.387,0.482,3.035,3.698
				c0.044,0.21,0.133,0.402,0.221,0.604c0.054,0.182,0.128,0.359,0.182,0.56c0.107,0.27,0.201,0.545,0.309,0.815
				c0.015,0.088,0.054,0.162,0.074,0.255c0.108,0.271,0.196,0.541,0.304,0.811c0.397,1.089,0.741,2.155,1.213,3.206
				c0.452,0.634,0.834,1.306,1.232,1.994c0.107,0.196,0.201,0.378,0.29,0.58c0.127,0.305,0.215,0.613,0.324,0.938
				c0.039,0.128,0.059,0.275,0.093,0.402C32.159,31.854,32.159,31.928,32.173,32.017z"/>
		</g>
	</g>
	<path d="M21.709,21.264l0.273,0.41l0.369-0.246l0.151-0.101l0.049-0.174l0-0.004c0.02-0.068,0.249-0.815,0.667-1.506
		c0.208-0.345,0.461-0.673,0.738-0.898c0.278-0.226,0.556-0.347,0.871-0.349l0.024,0.001l0.01-0.492l-0.097,0.482l0.027-0.137
		l-0.029,0.136l0.002,0l0.027-0.137l-0.029,0.136c0.021,0.004,0.549,0.127,1.13,0.594c0.58,0.471,1.226,1.269,1.522,2.718V21.7
		l0.001,0.002c0.06,0.283,0.167,0.505,0.252,0.702l0.45-0.198l-0.471,0.141c0.065,0.215,0.135,0.384,0.178,0.546l0.007,0.027
		l0.011,0.027c0.102,0.254,0.195,0.529,0.31,0.815l0.457-0.182l-0.485,0.082c0.017,0.092,0.041,0.162,0.055,0.205l0.023,0.071
		l0.009,0.042l0.016,0.041c0.1,0.25,0.189,0.52,0.304,0.81l0.457-0.183l-0.461,0.168c0.394,1.078,0.74,2.156,1.226,3.239l0.02,0.044
		l0.028,0.04c0.433,0.605,0.81,1.264,1.208,1.954l0.426-0.247l-0.432,0.236c0.105,0.19,0.19,0.358,0.271,0.541l0.451-0.198
		l-0.455,0.19c0.113,0.269,0.199,0.566,0.312,0.904l0.466-0.155l-0.47,0.145c0.023,0.071,0.044,0.213,0.088,0.384l0.476-0.127
		l-0.48,0.107c0.007,0.027,0.008,0.087,0.029,0.225l0.004,0.023l0.006,0.022c0.004,0.02,0.008,0.039,0.008,0.084
		c0,0.044-0.004,0.112-0.005,0.207h0.492l-0.489-0.06c-0.015,0.129-0.042,0.235-0.081,0.338l0.461,0.174l-0.433-0.232
		c-0.017,0.031-0.054,0.086-0.1,0.144l0.386,0.305l-0.361-0.334c-0.229,0.25-0.531,0.408-0.932,0.632l-0.007,0.004l-0.006,0.004
		c-0.299,0.18-0.58,0.314-0.883,0.434l-0.076,0.031l-0.062,0.053c-0.496,0.42-0.985,0.852-1.45,1.396l0.374,0.319l-0.362-0.333
		c-0.516,0.567-1.306,0.844-2.159,1.112h-0.001L26.01,36.42c-0.084,0.029-0.271,0.068-0.419,0.092
		c-0.075,0.012-0.144,0.023-0.193,0.03s-0.076,0.01-0.076,0.01h0H25.32c-0.133,0.017-0.26,0.026-0.374,0.026
		c-0.385,0-0.823-0.096-1.154-0.197c-0.166-0.05-0.306-0.102-0.403-0.138c-0.048-0.018-0.085-0.034-0.11-0.045l-0.027-0.011
		l-0.006-0.003l-0.017-0.007l-0.017-0.007l-0.008-0.004c-0.055-0.02-0.342-0.13-0.652-0.29c-0.308-0.154-0.641-0.38-0.753-0.529
		l0.001,0.001l0,0.001c-0.252-0.317-0.613-0.661-0.921-0.943c-0.306-0.28-0.555-0.486-0.558-0.49l-0.061-0.051l-0.073-0.029
		l-0.009-0.003c-0.101-0.039-1.083-0.455-1.77-1.009l0,0l0.001,0c-0.07-0.057-0.112-0.118-0.146-0.208
		c-0.034-0.09-0.054-0.211-0.054-0.354c-0.001-0.262,0.068-0.587,0.158-0.881c0.089-0.296,0.191-0.549,0.253-0.733l0,0l0,0.001
		c0.017-0.055,0.119-0.269,0.252-0.507c0.401-0.731,1.118-1.869,1.268-2.094l0,0.001v0.001l0.058-0.101
		c0.056-0.113,0.121-0.271,0.207-0.488c0.595-1.506,2.072-5.709,2.074-5.714l0.1-0.283l-0.509-0.542L21.709,21.264l0.273,0.41
		L21.709,21.264l-0.358,0.337l0.304,0.325l0.359-0.337l-0.464-0.164c0,0.001-0.129,0.366-0.326,0.92
		c-0.294,0.831-0.742,2.086-1.136,3.162c-0.197,0.538-0.38,1.031-0.524,1.401c-0.071,0.187-0.133,0.34-0.179,0.452
		c-0.024,0.055-0.043,0.1-0.057,0.13l-0.015,0.03l0,0l0.22,0.127l-0.21-0.143l-0.01,0.015l0.22,0.127l-0.21-0.143v0.001
		l-0.001,0.001c-0.118,0.176-0.468,0.729-0.819,1.315c-0.174,0.292-0.349,0.589-0.492,0.85c-0.144,0.265-0.254,0.475-0.321,0.666v0
		l0,0.001c-0.043,0.131-0.16,0.42-0.262,0.761c-0.104,0.343-0.2,0.746-0.201,1.166c0,0.228,0.029,0.465,0.116,0.696
		c0.085,0.232,0.234,0.459,0.451,0.631h0l0.001,0c0.897,0.715,2.009,1.148,2.031,1.159l0.181-0.458l-0.315,0.378l0.04,0.034
		c0.093,0.079,0.335,0.286,0.597,0.53c0.261,0.241,0.545,0.525,0.702,0.725l0,0.001l0.001,0.001c0.317,0.384,0.762,0.63,1.143,0.825
		c0.379,0.189,0.691,0.303,0.703,0.307l0.167-0.462l-0.2,0.448c0.013,0.007,0.274,0.123,0.662,0.24
		c0.387,0.117,0.9,0.239,1.439,0.24c0.16,0,0.328-0.011,0.5-0.033h-0.002l0,0c0.004-0.001,0.138-0.018,0.309-0.046
		c0.174-0.03,0.379-0.068,0.564-0.127l-0.002,0.001l-0.003,0c0.848-0.272,1.835-0.575,2.584-1.382l0.007-0.007l0.005-0.007
		c0.41-0.479,0.853-0.871,1.34-1.285l-0.319-0.375l0.18,0.458c0.346-0.136,0.684-0.298,1.032-0.509l-0.254-0.42l0.242,0.428
		c0.364-0.208,0.79-0.414,1.17-0.821l0.012-0.014l0.011-0.015c0.063-0.08,0.133-0.173,0.196-0.289l0.015-0.028l0.012-0.031
		c0.068-0.182,0.112-0.372,0.135-0.565l0.004-0.03v-0.03c0-0.048,0.004-0.114,0.004-0.207c0.001-0.092-0.007-0.209-0.041-0.337
		l-0.475,0.126l0.485-0.082c-0.009-0.039-0.009-0.125-0.041-0.275l-0.002-0.01l-0.003-0.01c-0.023-0.084-0.043-0.237-0.098-0.42
		l-0.001-0.006l-0.003-0.004c-0.104-0.312-0.194-0.633-0.336-0.974l-0.002-0.003l-0.002-0.005c-0.096-0.218-0.197-0.415-0.308-0.618
		l-0.003-0.005l-0.002-0.005c-0.397-0.686-0.788-1.372-1.258-2.032l-0.4,0.286l0.448-0.202c-0.457-1.018-0.798-2.072-1.199-3.173
		l-0.003-0.007l-0.002-0.007c-0.102-0.25-0.189-0.521-0.305-0.81l-0.457,0.183l0.481-0.102c-0.018-0.087-0.042-0.15-0.055-0.188
		l-0.013-0.039l-0.002-0.008l-0.009-0.051l-0.019-0.05c-0.102-0.254-0.195-0.529-0.309-0.814l-0.458,0.182l0.475-0.128
		c-0.066-0.24-0.142-0.424-0.186-0.573l-0.009-0.028l-0.012-0.028c-0.092-0.207-0.162-0.368-0.191-0.507l0.003,0.004l0,0.002
		c-0.343-1.72-1.181-2.765-1.942-3.348c-0.76-0.585-1.427-0.725-1.477-0.735l-0.042-0.008l-0.044-0.001l-0.046,0
		c-0.607,0-1.128,0.26-1.532,0.604c-0.609,0.519-1.011,1.229-1.283,1.811c-0.271,0.582-0.401,1.04-0.406,1.057l0.473,0.136
		l-0.273-0.41l-0.368,0.246l-0.484,0.322l0.398,0.424L21.709,21.264z"/>
	<g>
		<g>
			<defs>
				<rect id="SVGID_3_" x="16.369" y="35.719" width="17.081" height="7.916"/>
			</defs>
			<clipPath id="SVGID_4_">
				<use xlink:href="#SVGID_3_"  style="overflow:visible;"/>
			</clipPath>
			<path style="clip-path:url(#SVGID_4_);" d="M32.556,36.464c0,0,2.629,4.203-1.134,5.826c-3.763,1.626-5.785,1.323-6.867,1.323
				l0.009-0.008c-1.083,0-2.404,0.285-6.168-1.34c-3.762-1.624-1.134-5.826-1.134-5.826c0.4-0.493,1.006-0.721,1.006-0.721
				s4.407,3.583,6.754,3.608c2.345,0.025,6.529-3.583,6.529-3.583S32.608,36.156,32.556,36.464z"/>
		</g>
	</g>
	<path d="M31.551,35.744l-0.179,0.458l0.008,0.003c0.044,0.017,0.28,0.115,0.481,0.229c0.1,0.055,0.191,0.117,0.232,0.154
		l0.019,0.019l0.001,0.001l0.121-0.098l-0.141,0.064l0.02,0.034l0.121-0.098l-0.141,0.064l0.29-0.131h-0.316
		c0,0.061,0.015,0.106,0.026,0.131l0.29-0.131h-0.316h0.357l-0.352-0.059l-0.005,0.059h0.357l-0.352-0.059l-0.032,0.185l0.099,0.157
		v0.001c0.016,0.025,0.226,0.371,0.427,0.875c0.202,0.503,0.392,1.165,0.391,1.803c-0.001,0.473-0.098,0.928-0.351,1.335
		c-0.254,0.408-0.669,0.791-1.38,1.099l0.009-0.004l-0.009,0.004c-2.689,1.159-4.415,1.302-5.569,1.305
		c-0.431,0-0.785-0.022-1.103-0.022v0.492l0.353,0.343l0.008-0.008l0.812-0.835h-1.164c-0.304,0-0.596,0.02-0.931,0.02
		c-0.475,0-1.041-0.036-1.842-0.217c-0.799-0.18-1.829-0.51-3.201-1.102c-0.71-0.308-1.125-0.69-1.378-1.098
		c-0.252-0.409-0.35-0.862-0.351-1.336c-0.002-0.659,0.201-1.342,0.41-1.851c0.104-0.254,0.209-0.465,0.287-0.612
		c0.039-0.072,0.07-0.128,0.091-0.166l0.024-0.041l0.005-0.009l0-0.001l-0.417-0.261l0.382,0.31c0.146-0.181,0.352-0.333,0.52-0.43
		c0.084-0.05,0.157-0.086,0.208-0.11l0.057-0.025l0.012-0.005l-0.011-0.028l0.011,0.029l0,0l-0.011-0.028l0.011,0.029l-0.174-0.461
		l-0.31,0.382c0.008,0.007,1.12,0.911,2.541,1.826c0.711,0.458,1.498,0.918,2.273,1.274c0.778,0.351,1.536,0.606,2.244,0.619h-0.01
		h0.01h0.03c0.712-0.003,1.459-0.256,2.215-0.606c1.131-0.528,2.273-1.299,3.143-1.938c0.869-0.641,1.461-1.152,1.468-1.157
		L31.551,35.744l-0.179,0.458L31.551,35.744l-0.321-0.374l-0.044,0.038c-0.224,0.188-1.276,1.064-2.528,1.881
		c-0.626,0.409-1.302,0.803-1.94,1.089c-0.636,0.288-1.238,0.458-1.671,0.455h-0.02h0.011h-0.01
		c-0.465-0.001-1.138-0.203-1.846-0.53c-1.067-0.487-2.229-1.232-3.112-1.854c-0.442-0.312-0.816-0.591-1.08-0.792
		c-0.131-0.101-0.235-0.182-0.306-0.237c-0.07-0.055-0.106-0.085-0.106-0.085l-0.218-0.178l-0.265,0.099
		c-0.019,0.007-0.195,0.074-0.43,0.212c-0.234,0.139-0.532,0.347-0.786,0.659l-0.019,0.023l-0.016,0.025
		c-0.01,0.017-0.247,0.396-0.485,0.978c-0.237,0.584-0.481,1.371-0.483,2.224c0,0.61,0.131,1.26,0.499,1.854
		c0.367,0.596,0.966,1.115,1.825,1.484c1.414,0.61,2.502,0.96,3.374,1.157c0.871,0.198,1.531,0.241,2.059,0.241
		c0.371,0,0.672-0.021,0.931-0.019v-0.493l-0.353-0.343l-0.008,0.009l-0.812,0.835h1.164c0.269,0,0.641,0.021,1.103,0.021
		c1.252,0.002,3.162-0.174,5.958-1.386l0,0c0.859-0.368,1.459-0.888,1.826-1.483c0.369-0.595,0.499-1.245,0.499-1.854
		c-0.001-0.853-0.247-1.641-0.483-2.224c-0.238-0.583-0.474-0.961-0.484-0.977l-0.417,0.26l0.485,0.082l0.009-0.104
		c-0.001-0.177-0.068-0.307-0.13-0.397c-0.113-0.158-0.236-0.249-0.361-0.336c-0.187-0.127-0.387-0.226-0.547-0.301
		c-0.159-0.074-0.276-0.119-0.282-0.122l-0.276-0.107l-0.224,0.193L31.551,35.744z"/>
</g>
</svg>
