<?xml version="1.0" encoding="iso-8859-1"?>
<!-- Generator: Adobe Illustrator 16.0.4, SVG Export Plug-In . SVG Version: 6.00 Build 0)  -->
<!DOCTYPE svg PUBLIC "-//W3C//DTD SVG 1.1//EN" "http://www.w3.org/Graphics/SVG/1.1/DTD/svg11.dtd">
<svg version="1.1" id="Layer_1" xmlns="http://www.w3.org/2000/svg" xmlns:xlink="http://www.w3.org/1999/xlink" x="0px" y="0px"
	 width="50px" height="50px" viewBox="0 0 50 50" style="enable-background:new 0 0 50 50;" xml:space="preserve">
<g>
	<path style="fill:#000100;" d="M31.321,19.496c-0.648-0.161-1.301,0.246-1.467,0.903c-0.161,0.655,0.229,1.326,0.872,1.48
		c0.646,0.161,1.302-0.246,1.462-0.903C32.353,20.318,31.958,19.654,31.321,19.496z"/>
	<path style="fill:#000100;" d="M43.579,27.605l-0.262-0.876l-0.27-0.854l-0.324-0.792L42.42,24.29l-0.312-0.77l-0.279-0.761
		l-0.239-0.792l-0.188-0.794l0.042-0.364l0.168-0.343l0.172-0.366l0.046-0.343l-0.148-0.698l-0.176-0.688l-0.188-0.707l-0.219-0.679
		l-0.227-0.688l-0.24-0.676l-0.261-0.688l-0.272-0.67l-0.301-0.634l-0.323-0.646l-0.313-0.637l0.977-0.604l-0.343-0.595
		l-0.385-0.555l-0.386-0.558l-0.388-0.534l-0.364-0.446l-0.385-0.427l-0.386-0.389l-0.399-0.385l-0.4-0.367l0.895-0.339
		l-0.461-0.313l-0.446-0.327l-0.473-0.279l-0.467-0.27l-0.488-0.264l-0.494-0.24l-0.51-0.23L33.718,5.01l-0.531-0.209l-0.537-0.2
		l-0.643-0.206L31.37,4.227l-0.646-0.175l-0.633-0.149L29.423,3.77l-0.661-0.105l-0.664-0.082l-0.667-0.064l-0.654-0.042
		l-0.668-0.019L25.45,3.436l-0.688,0.021l-0.668,0.019l-0.658,0.042L22.77,3.582l-0.654,0.082L21.427,3.77l-0.68,0.133l-0.685,0.13
		l-0.689,0.14l-0.675,0.2l-0.689,0.188l-0.686,0.218l-0.661,0.23l-0.646,0.258l-0.634,0.306l-0.649,0.288l-0.612,0.324L13.515,6.55
		l-0.572,0.364L12.39,7.32l-0.543,0.431l-0.488,0.427l-0.467,0.449l-0.448,0.467l-0.428,0.489l-0.407,0.542l-0.409,0.51L8.835,11.19
		l-0.342,0.573L8.16,12.346l-0.301,0.591l-0.262,0.606L7.344,14.14l-0.216,0.625L6.94,15.377l-0.158,0.649l-0.124,0.616
		l-0.188,1.322l-0.073,1.301l0.03,1.301l0.128,1.282l0.206,1.286l0.343,1.258l0.428,1.222l3.214,5.216
		c5.449,5.616,5.222,11.223,5.222,11.223l-0.136,1.11l0.1,2.996l18.674,0.404l0.079-0.347v-1.085l0.042-1.092l0.082-2.438
		l0.125-1.241l0.063-0.291l0.115-0.24l0.124-0.208l0.167-0.18l0.218-0.121l0.252-0.088l0.282-0.091l0.301-0.042l0.384-0.042
		l0.368-0.022h0.088l0.363,0.043l0.343,0.021l0.364,0.042l0.334,0.03l0.385,0.043l0.367,0.042l-0.916,0.018l0.406,0.046l0.409,0.018
		l0.445,0.024l0.261-0.024l0.271-0.063l0.279-0.104l0.264-0.137l0.248-0.163l0.222-0.2l0.182-0.209l0.158-0.219l0.103-0.47
		l-0.054-0.51l-0.101-0.509v-0.492l0.075-0.218l0.104-0.188l0.104-0.198l0.127-0.17l0.134-0.175l0.106-0.188l0.081-0.194
		l0.021-0.212l-0.021-0.24l-0.042-0.209l-0.061-0.216l-0.106-0.209l-0.154-0.2l-0.167-0.185l-0.2-0.148l-0.228-0.155l0.248-0.125
		l0.24-0.149l0.243-0.178l0.166-0.164l0.146-0.201l0.091-0.206l0.046-0.197l-0.046-0.206l-0.236-0.755l-0.148-0.686l-0.091-0.637
		v-0.624l0.36-0.146l0.325-0.146l0.281-0.158l0.23-0.167l0.177-0.188l0.106-0.197l0.062-0.209L43.579,27.605z M25.296,23.011
		c-0.085,0.082-2.253-0.843-2.253-0.843l-0.986,0.4c0,0-0.806,2.162-0.928,2.162h-1.764c-0.119,0-0.989-2.156-0.989-2.156
		l-0.979-0.4c0,0-2.135,0.974-2.217,0.892l-1.253-1.225c-0.078-0.082,0.864-2.208,0.864-2.208l-0.405-0.965
		c0,0-2.211-0.785-2.211-0.907v-1.729c0-0.112,2.207-0.964,2.207-0.964l0.403-0.962c0,0-0.992-2.085-0.906-2.17l1.246-1.223
		c0.082-0.082,2.259,0.843,2.259,0.843l0.98-0.397c0,0,0.807-2.166,0.928-2.166h1.765c0.118,0,0.985,2.159,0.985,2.159l0.982,0.398
		c0,0,2.132-0.974,2.22-0.888l1.246,1.219c0.082,0.082-0.861,2.213-0.861,2.213l0.407,0.962c0,0,2.21,0.785,2.21,0.906v1.726
		c0,0.118-2.204,0.967-2.204,0.967l-0.406,0.961c0,0,0.998,2.086,0.91,2.174L25.296,23.011z M34.568,21.98
		c-0.014,0.054-1.109,0.206-1.109,0.206l-0.297,0.413c0,0,0.206,1.097,0.154,1.128l-0.703,0.44c-0.049,0.03-0.928-0.649-0.928-0.649
		l-0.494,0.073c0,0-0.619,0.938-0.671,0.922l-0.8-0.197c-0.055-0.012-0.194-1.134-0.194-1.134l-0.397-0.297
		c0,0-1.082,0.225-1.109,0.173l-0.425-0.719c-0.03-0.049,0.646-0.949,0.646-0.949l-0.066-0.498c0,0-0.916-0.622-0.9-0.676
		l0.203-0.819c0.012-0.055,1.116-0.209,1.116-0.209l0.291-0.413c0,0-0.207-1.098-0.158-1.125l0.707-0.44
		c0.048-0.027,0.928,0.649,0.928,0.649l0.491-0.076c0,0,0.615-0.935,0.676-0.921l0.798,0.2c0.055,0.012,0.196,1.131,0.196,1.131
		l0.397,0.297c0,0,1.08-0.221,1.11-0.173l0.421,0.718c0.031,0.049-0.645,0.95-0.645,0.95l0.068,0.5c0,0,0.913,0.619,0.898,0.676
		L34.568,21.98z"/>
	<path style="fill:#000100;" d="M20.214,14.344c-1.423,0-2.581,1.128-2.581,2.517c0,1.392,1.158,2.522,2.581,2.522
		c1.416,0,2.574-1.13,2.574-2.522C22.788,15.472,21.63,14.344,20.214,14.344z"/>
</g>
</svg>
