<?xml version="1.0" encoding="iso-8859-1"?>
<!-- Generator: Adobe Illustrator 16.0.4, SVG Export Plug-In . SVG Version: 6.00 Build 0)  -->
<!DOCTYPE svg PUBLIC "-//W3C//DTD SVG 1.1//EN" "http://www.w3.org/Graphics/SVG/1.1/DTD/svg11.dtd">
<svg version="1.1" id="Layer_1" xmlns="http://www.w3.org/2000/svg" xmlns:xlink="http://www.w3.org/1999/xlink" x="0px" y="0px"
	 width="50px" height="50px" viewBox="0 0 50 50" style="enable-background:new 0 0 50 50;" xml:space="preserve">
<g>
	<path d="M24.999,41.329c-2.837,0-5.532-0.64-7.943-1.781l-2.121,5.965h21.525l-2.416-6.531
		C31.363,40.475,28.281,41.329,24.999,41.329z"/>
	<path d="M24.999,39.236c3.076,0,5.961-0.802,8.467-2.203c5.313-2.971,8.909-8.649,8.909-15.171c0-9.596-7.778-17.375-17.375-17.375
		c-9.596,0-17.374,7.779-17.374,17.375c0,6.962,4.095,12.965,10.011,15.737C19.871,38.648,22.367,39.236,24.999,39.236z
		 M32.226,8.719c4.476,2.676,7.475,7.565,7.475,13.16c0,5.594-2.998,10.484-7.475,13.16c3.537-2.904,5.85-7.715,5.85-13.16
		C38.075,16.432,35.762,11.622,32.226,8.719z M23.438,21.208l1.413,0.866l-1.547,0.593l-0.387,1.611l-1.044-1.288l-1.651,0.129
		l0.903-1.389l-0.633-1.531l1.6,0.429l1.26-1.076L23.438,21.208z M16.107,23.889l-1.981-0.791l-1.773,1.184l0.138-2.128
		l-1.672-1.321l2.065-0.526l0.741-2l1.136,1.805l2.134,0.084l-1.366,1.641L16.107,23.889z M18.127,14.677l-2.451-0.988l2.274-1.342
		l0.184-2.633l1.979,1.747l2.56-0.64l-1.051,2.422l1.4,2.237l-2.627-0.25L18.7,17.254L18.127,14.677z"/>
</g>
</svg>
